<svg id="Layer_1" height="512" viewBox="0 0 512 512" width="512" xmlns="http://www.w3.org/2000/svg" data-name="Layer 1"><path d="m71 281.374a6 6 0 0 0 -6 6v2.666a6 6 0 0 0 12 0v-2.666a6 6 0 0 0 -6-6z"/><path d="m71 303.67a6 6 0 0 0 -6 6v77.835a6 6 0 0 0 12 0v-77.835a6 6 0 0 0 -6-6z"/><path d="m466.364 103.194a6 6 0 0 0 -5.565-.837l-68.035 23.982c13.336-8.546 23.494-20.416 28.863-34.339l28.473-73.842a6 6 0 0 0 -5.6-8.158h-.081c-46.211.628-85.96 15.934-109.056 41.994-17.261 19.476-24.82 44.572-21.868 72.591l.464 13.973a6.028 6.028 0 0 0 .059.647c-13.779 33.195-15.281 67.736-4.381 101.644a41.641 41.641 0 0 0 -3.69-1.94 274.615 274.615 0 0 0 -11.047-29.172c.024-.185.041-.372.047-.56l.515-17.137c2.225-74.134-46.323-136.654-108.223-139.368a6 6 0 0 0 -6.216 6.743l7.608 60.5c3.024 27.784 15.561 51.474 36.259 68.51 16 13.172 36.825 22.29 58.9 25.868q4.575 10.213 8.3 20.894c-1.279-.117-2.571-.184-3.875-.184h-57.153a42.886 42.886 0 0 0 -30.553 12.633l-11.533 11.394a87.344 87.344 0 0 1 -56.976 25.803v-.9a25.75 25.75 0 0 0 -25.736-25.933h-37.058a26.152 26.152 0 0 0 -26.206 25.937v192.063a26.206 26.206 0 0 0 26.206 26h37.058a25.8 25.8 0 0 0 25.736-26v-6.1l13.064 4.514a259.921 259.921 0 0 0 86 14.586h126.376a27.567 27.567 0 0 0 21.883-44.342 27.557 27.557 0 0 0 14.51-42.277 27.589 27.589 0 0 0 15.473-46.792c-.518-.518-1.057-1.006-1.607-1.477a27.814 27.814 0 0 0 -16.356-50.112h-49.572l-14.106-40.995c-.413-1.208-.885-2.383-1.4-3.53a103.273 103.273 0 0 1 14.407-24.275l9.772.609a110.021 110.021 0 0 0 14.716 1.008c22.086 0 42.084-7.053 58.481-20.754 26.72-22.329 43.176-61.616 45.147-107.788a6 6 0 0 0 -2.424-5.081zm-233.323 30.484 28.125 40.422a243.337 243.337 0 0 1 16.115 26.746c-50.961-11.478-73.123-49.2-76.73-82.327l-6.694-53.233c50.72 6.617 89.705 59.205 89.673 121.923-3.89-6.881-8.055-13.556-12.514-19.964l-28.125-40.417a6 6 0 0 0 -9.85 6.855zm-113.041 342.322a14 14 0 0 1 -14 14h-37a14 14 0 0 1 -14-14v-192a14 14 0 0 1 14-14h37a14 14 0 0 1 14 14zm224.34-416.046c19.392-21.883 52.332-35.378 91.29-37.636l-25.2 65.361c-7.354 19.075-25.791 33.626-49.321 38.925a263.46 263.46 0 0 1 -30.209 4.752q2.055-3.919 4.36-7.826a194.486 194.486 0 0 1 43.818-50.93 6 6 0 0 0 -7.238-9.571c-1.083.818-26.749 20.426-46.7 54.034-.054.091-.1.182-.157.272-1.071-22.359 5.41-41.645 19.357-57.381zm-31.291 200.31c-.094.257-.195.51-.287.767-.166.464-.316.925-.475 1.388-.348-1.559-.726-3.109-1.1-4.661a29.091 29.091 0 0 1 1.862 2.506zm78.292 55.736a15.635 15.635 0 0 1 11.017 4.732 16.251 16.251 0 0 1 4.562 11.351 15.884 15.884 0 0 1 -15.577 15.917h-73.975a6 6 0 1 0 0 12h72.432a15.242 15.242 0 0 1 11.015 4.319 15.641 15.641 0 0 1 -11.015 26.681h-72.432a6 6 0 1 0 0 12h53.939a15.5 15.5 0 1 1 0 31h-53.939a6 6 0 1 0 0 12h40.07a15.5 15.5 0 1 1 0 31h-126.376a247.933 247.933 0 0 1 -82.031-13.912l-17.031-5.903v-160.311a99.766 99.766 0 0 0 65.464-29.374l11.468-11.379a31.116 31.116 0 0 1 22.13-9.121h57.15a30.192 30.192 0 0 1 8.019 1.1 267.11 267.11 0 0 1 6.3 26.417c1.58 8.527 2.877 16.912 3.89 25.057.061 1.484.173 2.957.309 4.425l.424.069-15.213.048c-16.955-.736-32.221-12.292-38.133-28.882l-.194-.637a5.988 5.988 0 1 0 -11.264 4.066l.248.681c7.651 21.469 26.893 35.8 49.017 36.758zm-62.256-12-10.235.032c-.147-1.872-.3-4.172-.46-5.472a83.021 83.021 0 0 1 1.874-20.186zm9.1-118.826a303.617 303.617 0 0 0 -7.276 43.025 113.944 113.944 0 0 0 -8.653 12.621c-11.5-32.568-10.584-65.023 2.717-96.854a293.471 293.471 0 0 0 38.771-5.655q3.677-.828 7.206-1.922c-15.611 10.594-27.413 27.883-32.763 48.785zm77.759 21.677c-17.608 14.715-39.178 20.447-64.1 17.036-.147-.02-.293-.034-.441-.044h-.065l55.5-50.745a6 6 0 1 0 -8.1-8.855l-53.9 49.285a251.478 251.478 0 0 1 4.971-25.375c5.981-23.364 21.063-41.371 40.343-48.167l66.069-23.286c-3.391 38.871-17.838 71.4-40.275 90.151z"/></svg>